<?xml version="1.0" encoding="UTF-8"?>
<svg version="1.1" xmlns="http://www.w3.org/2000/svg" width="1280" height="720">
<path d="M0 0 C0.72 -0 1.44 -0 2.18 -0 C4.57 -0.01 6.96 -0.01 9.36 -0 C11.08 -0 12.8 -0.01 14.52 -0.01 C19.18 -0.01 23.85 -0.01 28.51 -0.01 C33.39 -0 38.27 -0.01 43.15 -0.01 C51.34 -0.01 59.53 -0.01 67.71 -0 C77.19 0 86.67 0 96.14 -0.01 C104.28 -0.01 112.41 -0.01 120.54 -0.01 C125.4 -0.01 130.26 -0.01 135.12 -0.01 C139.68 -0.01 144.25 -0.01 148.81 -0 C150.49 -0 152.17 -0 153.84 -0.01 C156.13 -0.01 158.41 -0.01 160.69 0 C162.61 0 162.61 0 164.57 0 C167.53 0.13 167.53 0.13 169.53 1.13 C169.68 13.24 169.83 25.34 169.97 37.45 C170.04 43.07 170.1 48.7 170.18 54.32 C170.25 59.74 170.31 65.16 170.37 70.58 C170.39 72.65 170.42 74.73 170.45 76.8 C170.49 79.69 170.52 82.58 170.55 85.48 C170.57 86.78 170.57 86.78 170.59 88.1 C170.61 90.11 170.57 92.12 170.53 94.13 C169.53 95.13 169.53 95.13 167.47 95.25 C166.55 95.25 165.64 95.25 164.7 95.25 C163.66 95.25 162.61 95.25 161.53 95.25 C160.38 95.25 159.22 95.24 158.03 95.24 C156.82 95.24 155.61 95.24 154.37 95.24 C151.04 95.24 147.71 95.24 144.39 95.23 C140.91 95.22 137.44 95.22 133.97 95.22 C127.39 95.22 120.81 95.21 114.23 95.2 C106.74 95.19 99.25 95.18 91.76 95.18 C76.35 95.17 60.94 95.15 45.53 95.13 C46.63 96.71 47.73 98.3 48.83 99.88 C49.75 101.2 49.75 101.2 50.69 102.55 C53.24 106.12 55.98 109.5 58.78 112.88 C59.92 114.27 61.06 115.66 62.2 117.06 C62.77 117.74 63.33 118.43 63.91 119.13 C67.21 123.19 70.43 127.31 73.64 131.43 C75.75 134.14 77.89 136.83 80.04 139.51 C93.26 156.05 103.71 171.9 102.47 194 C102.2 196.05 101.89 198.09 101.53 200.13 C101.34 201.28 101.15 202.42 100.95 203.61 C96.71 226.13 83.43 244.14 64.84 257.19 C56.89 262.37 49.72 265.07 40.4 266.81 C39.77 266.93 39.13 267.05 38.47 267.18 C24.31 269.54 9.83 269.26 -4.47 269.19 C-6.23 269.18 -7.99 269.18 -9.75 269.18 C-13.99 269.16 -18.23 269.15 -22.47 269.13 C-22.47 268.47 -22.47 267.81 -22.47 267.13 C-32.23 267.23 -42 267.35 -51.76 267.47 C-56.29 267.52 -60.82 267.58 -65.35 267.62 C-69.72 267.67 -74.09 267.72 -78.46 267.78 C-80.13 267.8 -81.81 267.82 -83.48 267.84 C-85.81 267.86 -88.14 267.89 -90.47 267.92 C-91.17 267.93 -91.87 267.93 -92.59 267.94 C-95.81 267.72 -95.81 267.72 -98.47 269.13 C-101.15 269.23 -103.79 269.26 -106.47 269.26 C-107.31 269.26 -108.15 269.26 -109.01 269.26 C-111.81 269.27 -114.61 269.26 -117.41 269.26 C-119.37 269.26 -121.33 269.26 -123.29 269.26 C-127.42 269.26 -131.55 269.26 -135.68 269.26 C-140.9 269.25 -146.13 269.25 -151.35 269.26 C-188.03 269.3 -188.03 269.3 -202.69 268.81 C-203.56 268.78 -204.44 268.76 -205.34 268.74 C-226.89 267.81 -242.95 253.37 -258.03 239.38 C-260.11 237.46 -262.21 235.6 -264.35 233.75 C-272.65 226.52 -280.67 219 -288.4 211.17 C-293.95 205.5 -293.95 205.5 -300.47 201.13 C-300.47 201.76 -300.47 202.39 -300.47 203.04 C-300.44 209.67 -300.43 216.31 -300.42 222.95 C-300.41 225.42 -300.41 227.88 -300.4 230.35 C-300.38 233.92 -300.38 237.5 -300.37 241.07 C-300.37 242.15 -300.36 243.23 -300.36 244.35 C-300.36 252.65 -300.84 260.85 -301.47 269.13 C-315 269.2 -328.52 269.25 -342.05 269.28 C-348.33 269.3 -354.61 269.32 -360.89 269.35 C-366.94 269.39 -373 269.4 -379.06 269.41 C-381.37 269.42 -383.69 269.43 -386 269.44 C-389.23 269.47 -392.47 269.47 -395.7 269.47 C-396.66 269.48 -397.63 269.49 -398.62 269.5 C-399.94 269.49 -399.94 269.49 -401.28 269.49 C-402.05 269.49 -402.81 269.49 -403.6 269.5 C-404.22 269.37 -404.84 269.25 -405.47 269.13 C-407.58 265.97 -407.72 265.25 -407.72 261.65 C-407.72 260.73 -407.73 259.81 -407.73 258.86 C-407.72 257.84 -407.72 256.83 -407.71 255.78 C-407.71 254.71 -407.72 253.63 -407.72 252.52 C-407.72 248.89 -407.71 245.27 -407.7 241.64 C-407.7 239.05 -407.7 236.46 -407.7 233.87 C-407.7 228.28 -407.69 222.69 -407.68 217.1 C-407.67 209.02 -407.66 200.94 -407.66 192.86 C-407.66 179.75 -407.64 166.64 -407.62 153.53 C-407.6 140.8 -407.59 128.06 -407.58 115.33 C-407.58 114.54 -407.58 113.76 -407.58 112.95 C-407.58 109.01 -407.58 105.08 -407.57 101.14 C-407.55 68.47 -407.52 35.8 -407.47 3.13 C-382.96 3.03 -358.44 2.96 -333.93 2.92 C-322.55 2.9 -311.16 2.87 -299.78 2.83 C-289.85 2.79 -279.93 2.76 -270 2.75 C-264.75 2.75 -259.5 2.73 -254.25 2.7 C-249.29 2.68 -244.34 2.67 -239.38 2.67 C-237.58 2.67 -235.77 2.67 -233.96 2.65 C-219.81 2.54 -206.9 4.09 -194.22 10.94 C-193.22 11.46 -193.22 11.46 -192.21 12 C-190.28 13.02 -188.38 14.07 -186.47 15.13 C-185.48 15.67 -184.49 16.22 -183.48 16.78 C-161.32 29.93 -145.46 51.62 -138.47 76.13 C-138.1 77.31 -138.1 77.31 -137.73 78.51 C-132.9 96.02 -138.24 115.55 -146.47 131.13 C-154.72 144.22 -166.46 155.74 -179.47 164.13 C-180.13 164.13 -180.79 164.13 -181.47 164.13 C-181.47 164.79 -181.47 165.45 -181.47 166.13 C-172.98 167.08 -164.57 167.29 -156.04 167.32 C-154.62 167.32 -153.2 167.33 -151.78 167.34 C-148.76 167.36 -145.73 167.37 -142.7 167.39 C-137.92 167.41 -133.13 167.44 -128.34 167.46 C-117.33 167.53 -106.33 167.58 -95.32 167.64 C-85.2 167.69 -75.07 167.74 -64.95 167.8 C-60.19 167.83 -55.43 167.86 -50.67 167.88 C-47.72 167.89 -44.77 167.91 -41.82 167.93 C-40.45 167.93 -39.08 167.94 -37.7 167.94 C-35.84 167.95 -33.97 167.96 -32.11 167.98 C-31.06 167.98 -30.01 167.99 -28.94 167.99 C-26.47 168.13 -26.47 168.13 -24.47 169.13 C-24.47 168.47 -24.47 167.81 -24.47 167.13 C-25.46 166.8 -26.45 166.47 -27.47 166.13 C-28.5 164.48 -29.49 162.81 -30.47 161.13 C-32.22 158.87 -34.1 156.72 -35.97 154.56 C-36.5 153.95 -37.03 153.34 -37.58 152.71 C-41.02 148.74 -44.53 144.85 -48.1 141 C-69.77 117.51 -79.66 98.38 -78.66 66.46 C-77.81 51.29 -69.43 36.37 -59.47 25.13 C-58.71 24.23 -58.71 24.23 -57.94 23.31 C-44.04 8.05 -20.18 0.01 0 0 Z M-47.49 37.68 C-59.52 52.56 -63.22 69.3 -61.47 88.13 C-57.9 108.27 -41.84 123.81 -28.47 138.13 C-6.47 161.73 -6.47 161.73 -6.47 171.06 C-8.1 176.06 -10.27 180.83 -14.91 183.56 C-19.92 184.66 -24.67 185.25 -29.81 185.26 C-31.69 185.27 -31.69 185.27 -33.6 185.27 C-34.98 185.27 -36.36 185.27 -37.73 185.27 C-39.19 185.28 -40.65 185.28 -42.11 185.28 C-46.06 185.29 -50.02 185.29 -53.97 185.29 C-56.45 185.29 -58.93 185.3 -61.4 185.3 C-70.05 185.31 -78.7 185.31 -87.35 185.31 C-95.39 185.31 -103.43 185.32 -111.47 185.34 C-118.39 185.35 -125.31 185.36 -132.23 185.36 C-136.36 185.36 -140.48 185.36 -144.61 185.37 C-148.49 185.38 -152.38 185.38 -156.26 185.37 C-157.68 185.37 -159.1 185.37 -160.52 185.38 C-184.69 185.48 -184.69 185.48 -194.47 176.13 C-194.98 175.65 -195.49 175.18 -196.01 174.69 C-197.68 173.12 -199.33 171.54 -200.97 169.94 C-201.5 169.43 -202.03 168.92 -202.58 168.39 C-205.26 165.7 -206.76 163.85 -207.47 160.13 C-206.46 159.58 -205.44 159.04 -204.39 158.47 C-182.24 146.42 -163.4 131.94 -155.96 106.99 C-151.38 89.5 -156.59 72.16 -165.36 56.93 C-176.41 38.98 -194.2 27.79 -214.13 22.08 C-221.38 20.51 -228.82 20.87 -236.19 20.9 C-237.9 20.9 -239.62 20.9 -241.33 20.9 C-245.9 20.9 -250.47 20.91 -255.03 20.92 C-259.33 20.94 -263.62 20.94 -267.92 20.94 C-280.46 20.95 -293 20.98 -305.53 21 C-333.56 21.04 -361.59 21.08 -390.47 21.13 C-390.47 97.03 -390.47 172.93 -390.47 251.13 C-367.04 251.13 -343.61 251.13 -319.47 251.13 C-318.84 230.24 -318.33 209.45 -318.41 188.56 C-318.41 186.07 -318.42 183.57 -318.42 181.07 C-318.43 175.09 -318.45 169.11 -318.47 163.13 C-312.8 166.47 -308.27 170.65 -303.47 175.13 C-302.49 176.04 -302.49 176.04 -301.5 176.97 C-294.01 183.95 -286.57 190.95 -279.38 198.25 C-276.82 200.77 -274.1 203.1 -271.37 205.45 C-269.49 207.11 -267.73 208.84 -265.97 210.63 C-263 213.64 -259.89 216.43 -256.68 219.19 C-254.19 221.37 -251.77 223.62 -249.35 225.88 C-243 231.66 -236.34 236.98 -229.47 242.13 C-228.73 242.69 -227.99 243.25 -227.23 243.83 C-218.07 250.16 -206.68 250.61 -195.91 250.81 C-194.57 250.84 -193.23 250.87 -191.88 250.91 C-174.08 251.32 -156.27 251.27 -138.46 251.26 C-133.4 251.26 -128.33 251.26 -123.27 251.26 C-114.79 251.26 -106.3 251.26 -97.82 251.26 C-88.07 251.25 -78.32 251.25 -68.58 251.26 C-60.13 251.26 -51.68 251.26 -43.23 251.26 C-38.22 251.26 -33.2 251.26 -28.19 251.26 C23.2 253.91 23.2 253.91 67.09 232.06 C79.38 219.5 84.08 205.37 83.94 187.97 C83.37 168.21 72.07 155.77 60 141.31 C55.56 135.98 51.28 130.52 47.02 125.04 C45.33 122.87 43.62 120.72 41.91 118.57 C40.66 116.99 39.41 115.4 38.15 113.81 C37.28 112.72 37.28 112.72 36.39 111.61 C26.03 98.44 26.03 98.44 26.53 91.44 C27.4 86.79 28.76 82.75 32.32 79.49 C34.96 77.86 36.45 77.76 39.53 77.77 C40.53 77.76 41.54 77.76 42.58 77.75 C43.68 77.76 44.77 77.78 45.91 77.79 C47.07 77.79 48.23 77.79 49.42 77.79 C53.27 77.79 57.11 77.81 60.95 77.83 C63.61 77.84 66.27 77.84 68.94 77.85 C75.23 77.86 81.52 77.88 87.82 77.91 C94.98 77.94 102.15 77.96 109.31 77.98 C124.05 78.01 138.79 78.06 153.53 78.13 C153.73 58.12 153.11 38.13 152.53 18.13 C132.04 18.06 111.55 18 91.06 17.97 C81.55 17.96 72.03 17.94 62.52 17.9 C54.22 17.87 45.92 17.85 37.62 17.84 C33.23 17.84 28.84 17.83 24.45 17.81 C20.31 17.79 16.17 17.78 12.03 17.79 C10.52 17.79 9.01 17.78 7.5 17.77 C-12.99 17.62 -32.93 22.42 -47.49 37.68 Z M-154.47 85.13 C-153.47 87.13 -153.47 87.13 -153.47 87.13 Z M-154.47 99.13 C-153.47 101.13 -153.47 101.13 -153.47 101.13 Z M-175.47 168.13 C-175.47 168.46 -175.47 168.79 -175.47 169.13 C-173.82 169.13 -172.17 169.13 -170.47 169.13 C-170.47 168.8 -170.47 168.47 -170.47 168.13 C-172.12 168.13 -173.77 168.13 -175.47 168.13 Z M-129.47 169.13 C-129.47 169.46 -129.47 169.79 -129.47 170.13 C-103.4 170.13 -77.33 170.13 -50.47 170.13 C-50.47 169.8 -50.47 169.47 -50.47 169.13 C-76.54 169.13 -102.61 169.13 -129.47 169.13 Z M84.53 185.13 C84.53 188.76 84.53 192.39 84.53 196.13 C84.86 196.13 85.19 196.13 85.53 196.13 C85.53 192.5 85.53 188.87 85.53 185.13 C85.2 185.13 84.87 185.13 84.53 185.13 Z M-318.47 218.13 C-318.47 229.35 -318.47 240.57 -318.47 252.13 C-318.14 252.13 -317.81 252.13 -317.47 252.13 C-317.47 240.91 -317.47 229.69 -317.47 218.13 C-317.8 218.13 -318.13 218.13 -318.47 218.13 Z M-195.47 251.13 C-195.47 251.46 -195.47 251.79 -195.47 252.13 C-189.86 252.13 -184.25 252.13 -178.47 252.13 C-178.47 251.8 -178.47 251.47 -178.47 251.13 C-184.08 251.13 -189.69 251.13 -195.47 251.13 Z M7.53 251.13 C7.53 251.46 7.53 251.79 7.53 252.13 C10.83 252.13 14.13 252.13 17.53 252.13 C17.53 251.8 17.53 251.47 17.53 251.13 C14.23 251.13 10.93 251.13 7.53 251.13 Z M-333.47 267.13 C-333.47 267.46 -333.47 267.79 -333.47 268.13 C-323.24 268.13 -313.01 268.13 -302.47 268.13 C-302.47 267.8 -302.47 267.47 -302.47 267.13 C-312.7 267.13 -322.93 267.13 -333.47 267.13 Z " fill="#FAC506" transform="translate(1108.4720001220703,364.8730163574219)"/>
<path d="M0 0 C2.58 -0 5.16 -0 7.74 -0.01 C14.03 -0.01 20.31 -0 26.6 0.01 C34.03 0.03 41.46 0.03 48.89 0.03 C62.29 0.04 75.69 0.05 89.09 0.08 C101.83 0.1 114.56 0.11 127.29 0.12 C128.07 0.12 128.84 0.12 129.63 0.12 C132.74 0.12 135.85 0.12 138.96 0.12 C214.5 0.14 290.04 0.53 365.58 1.36 C365.58 31.06 365.58 60.76 365.58 91.36 C327.63 91.36 289.68 91.36 250.58 91.36 C250.59 104.05 250.61 116.74 250.62 129.82 C250.62 137.84 250.63 145.85 250.63 153.87 C250.64 166.61 250.64 179.35 250.66 192.09 C250.67 201.36 250.67 210.64 250.68 219.91 C250.68 224.83 250.68 229.74 250.69 234.66 C250.7 239.28 250.7 243.9 250.7 248.52 C250.7 250.22 250.7 251.92 250.7 253.62 C250.71 255.93 250.71 258.24 250.7 260.55 C250.7 262.5 250.7 262.5 250.71 264.48 C250.58 267.36 250.58 267.36 249.58 268.36 C246.45 268.45 243.33 268.48 240.2 268.47 C239.2 268.47 238.2 268.47 237.16 268.47 C233.91 268.47 230.65 268.46 227.39 268.45 C225.39 268.45 223.38 268.45 221.38 268.45 C213.93 268.45 206.47 268.43 199.02 268.42 C174.05 268.39 174.05 268.39 148.58 268.36 C148.25 210.28 147.92 152.2 147.58 92.36 C108.64 92.36 69.7 92.36 29.58 92.36 C29.58 95.64 29.93 96.23 31.75 98.81 C32.22 99.48 32.7 100.16 33.19 100.85 C33.71 101.57 34.23 102.3 34.77 103.04 C35.31 103.8 35.85 104.55 36.4 105.33 C40.64 111.2 45.12 116.83 49.72 122.41 C55.59 129.54 61.14 136.89 66.58 144.36 C67.12 145.09 67.65 145.83 68.21 146.58 C69.84 148.83 71.46 151.09 73.08 153.36 C73.82 154.38 73.82 154.38 74.57 155.42 C84.18 168.98 87.77 184 85.26 200.49 C81.14 221.97 70.39 241.35 52.72 254.48 C50.06 256.23 47.36 257.81 44.58 259.36 C43.44 260.06 43.44 260.06 42.27 260.78 C32.15 266.58 20.01 267.39 8.57 267.93 C7.71 267.97 6.86 268.01 5.98 268.05 C-5.13 268.53 -16.24 268.49 -27.36 268.47 C-29.8 268.47 -32.23 268.47 -34.67 268.47 C-40.55 268.47 -46.42 268.47 -52.29 268.46 C-59.14 268.45 -65.99 268.45 -72.84 268.45 C-85.04 268.45 -97.25 268.44 -109.46 268.43 C-121.3 268.42 -133.14 268.42 -144.99 268.41 C-145.72 268.41 -146.45 268.41 -147.21 268.41 C-150.88 268.41 -154.56 268.41 -158.23 268.41 C-188.63 268.4 -219.02 268.38 -249.42 268.36 C-249.42 235.69 -249.42 203.02 -249.42 169.36 C-180.78 169.36 -112.14 169.36 -41.42 169.36 C-43.76 164.66 -45.13 162.27 -48.54 158.67 C-51.76 155.2 -54.83 151.67 -57.79 147.98 C-61 144 -64.36 140.21 -67.85 136.48 C-82.07 121.16 -95.06 104.46 -94.85 82.79 C-94.85 81.64 -94.84 80.48 -94.83 79.28 C-94.35 55.64 -83.24 35.23 -66.4 18.93 C-46.62 1.87 -24.86 -0.1 0 0 Z M-59.42 36.36 C-71.98 52.22 -79.25 69.92 -77.42 90.36 C-73.99 106.42 -61.21 119.29 -50.52 131.04 C-47.44 134.44 -44.42 137.89 -41.42 141.36 C-40.96 141.87 -40.51 142.39 -40.04 142.92 C-23.83 161.4 -23.83 161.4 -22.92 167.98 C-23.08 169.1 -23.25 170.21 -23.42 171.36 C-23.58 172.51 -23.75 173.67 -23.92 174.86 C-26.15 180.06 -30.35 183.82 -35.42 186.36 C-38.01 186.46 -40.58 186.51 -43.17 186.51 C-43.99 186.52 -44.8 186.52 -45.63 186.53 C-48.36 186.55 -51.09 186.55 -53.82 186.56 C-55.77 186.57 -57.72 186.58 -59.67 186.59 C-64.98 186.62 -70.29 186.64 -75.6 186.66 C-81.15 186.68 -86.69 186.71 -92.23 186.74 C-102.74 186.79 -113.24 186.83 -123.75 186.87 C-135.7 186.92 -147.66 186.98 -159.62 187.03 C-184.22 187.15 -208.82 187.25 -233.42 187.36 C-233.42 208.48 -233.42 229.6 -233.42 251.36 C-205.02 251.25 -176.62 251.14 -148.22 251.03 C-144.85 251.01 -141.49 251 -138.12 250.98 C-137.45 250.98 -136.78 250.98 -136.09 250.98 C-125.3 250.93 -114.5 250.89 -103.7 250.85 C-92.6 250.81 -81.49 250.77 -70.38 250.72 C-64.16 250.69 -57.93 250.67 -51.7 250.65 C-45.82 250.63 -39.94 250.6 -34.07 250.58 C-31.93 250.57 -29.79 250.56 -27.65 250.55 C-16.73 250.52 -5.83 250.36 5.08 249.89 C6.03 249.85 6.97 249.81 7.95 249.77 C22.64 249.09 34.01 246.87 45.58 237.36 C46.56 236.59 47.53 235.83 48.54 235.04 C57.25 227.74 62.26 216.98 65.58 206.36 C65.95 205.22 65.95 205.22 66.32 204.07 C69.45 192.65 68.46 180.08 63.58 169.36 C61.26 165.42 58.68 161.75 55.92 158.12 C54.5 156.25 53.11 154.36 51.72 152.47 C47 146.1 42.19 139.82 37.27 133.61 C32.67 127.79 28.17 121.9 23.71 115.98 C23.08 115.15 22.45 114.32 21.8 113.46 C11.58 99.86 11.58 99.86 11.58 95.36 C10.92 95.36 10.26 95.36 9.58 95.36 C11.88 82.01 11.88 82.01 17.38 78.07 C25.64 73.61 34.53 74.22 43.68 74.24 C45.02 74.24 46.36 74.24 47.71 74.24 C51.29 74.24 54.87 74.25 58.44 74.26 C61.81 74.26 65.17 74.26 68.54 74.26 C78.37 74.27 88.19 74.28 98.02 74.29 C130.97 74.32 130.97 74.32 164.58 74.36 C164.58 132.77 164.58 191.18 164.58 251.36 C197.75 250.86 197.75 250.86 231.58 250.36 C232.24 250.69 232.9 251.02 233.58 251.36 C233.58 193.28 233.58 135.2 233.58 75.36 C271.53 75.36 309.48 75.36 348.58 75.36 C348.25 74.7 347.92 74.04 347.58 73.36 C347.49 71.6 347.46 69.84 347.47 68.08 C347.47 66.98 347.47 65.88 347.47 64.74 C347.47 63.55 347.48 62.36 347.48 61.13 C347.49 59.91 347.49 58.69 347.49 57.44 C347.49 53.54 347.51 49.63 347.52 45.73 C347.53 43.09 347.53 40.45 347.53 37.81 C347.54 31.33 347.56 24.84 347.58 18.36 C300.59 18.26 253.6 18.19 206.61 18.15 C201.06 18.15 195.51 18.14 189.95 18.14 C188.85 18.14 187.74 18.13 186.6 18.13 C168.72 18.12 150.85 18.08 132.97 18.05 C114.61 18.01 96.26 17.99 77.9 17.98 C66.58 17.97 55.26 17.96 43.94 17.92 C36.17 17.9 28.4 17.9 20.63 17.9 C16.15 17.9 11.67 17.9 7.2 17.88 C3.09 17.86 -1.02 17.86 -5.13 17.87 C-6.61 17.87 -8.09 17.87 -9.56 17.86 C-28.15 17.71 -46.44 22.09 -59.42 36.36 Z M30.58 74.36 C30.58 74.69 30.58 75.02 30.58 75.36 C69.85 75.36 109.12 75.36 149.58 75.36 C149.58 75.03 149.58 74.7 149.58 74.36 C110.31 74.36 71.04 74.36 30.58 74.36 Z M-40.42 168.36 C-39.42 170.36 -39.42 170.36 -39.42 170.36 Z M67.58 197.36 C68.58 199.36 68.58 199.36 68.58 199.36 Z M-7.42 250.36 C-7.42 250.69 -7.42 251.02 -7.42 251.36 C-3.46 251.36 0.5 251.36 4.58 251.36 C4.58 251.03 4.58 250.7 4.58 250.36 C0.62 250.36 -3.34 250.36 -7.42 250.36 Z " fill="#FAC606" transform="translate(249.41748046875,84.6435546875)"/>
<path d="M0 0 C1.34 0 1.34 0 2.71 0 C3.65 -0 4.59 -0.01 5.56 -0.02 C8.68 -0.04 11.79 -0.04 14.91 -0.04 C17.08 -0.05 19.24 -0.06 21.4 -0.06 C25.94 -0.07 30.48 -0.08 35.01 -0.08 C40.83 -0.08 46.65 -0.1 52.47 -0.14 C56.94 -0.16 61.41 -0.17 65.88 -0.16 C68.02 -0.17 70.17 -0.18 72.31 -0.19 C75.31 -0.21 78.31 -0.2 81.31 -0.19 C82.65 -0.21 82.65 -0.21 84.01 -0.23 C90.01 -0.17 90.01 -0.17 93.13 2.11 C95.24 5.16 96.4 8.41 97.56 11.9 C97.82 12.65 98.08 13.4 98.34 14.17 C98.89 15.77 99.44 17.38 99.98 18.98 C100.83 21.49 101.69 24 102.56 26.5 C103.71 29.85 104.86 33.2 106.01 36.55 C108.24 43.06 110.52 49.56 112.83 56.04 C113.19 57.08 113.55 58.12 113.92 59.19 C114.42 60.6 114.42 60.6 114.93 62.03 C115.22 62.83 115.5 63.64 115.79 64.47 C116.5 66.48 116.5 66.48 118.64 67.29 C118.81 66.65 118.97 66 119.14 65.34 C121.1 57.92 123.47 50.71 126.02 43.48 C126.43 42.3 126.84 41.12 127.27 39.91 C128.14 37.44 129 34.97 129.87 32.5 C130.99 29.34 132.1 26.18 133.2 23.01 C134.26 19.98 135.33 16.95 136.39 13.91 C136.79 12.78 137.19 11.64 137.59 10.47 C137.96 9.43 138.33 8.38 138.72 7.3 C139.2 5.92 139.2 5.92 139.7 4.51 C140.64 2.29 140.64 2.29 142.64 0.29 C145.67 0.08 148.6 -0 151.63 0 C152.56 -0 153.5 -0.01 154.46 -0.02 C157.55 -0.04 160.64 -0.04 163.73 -0.04 C165.87 -0.05 168.01 -0.06 170.16 -0.06 C174.65 -0.07 179.15 -0.08 183.64 -0.08 C189.41 -0.08 195.18 -0.1 200.95 -0.14 C205.37 -0.16 209.8 -0.17 214.22 -0.16 C216.35 -0.17 218.48 -0.18 220.6 -0.19 C223.58 -0.21 226.55 -0.2 229.52 -0.19 C230.4 -0.2 231.29 -0.22 232.2 -0.23 C238.13 -0.17 238.13 -0.17 240.6 2.04 C241.63 4.28 242.57 6.45 243.35 8.79 C243.65 9.68 243.96 10.56 244.27 11.48 C244.58 12.43 244.9 13.38 245.22 14.37 C245.56 15.36 245.9 16.36 246.24 17.39 C247.32 20.58 248.39 23.78 249.45 26.98 C250.51 30.12 251.56 33.26 252.62 36.41 C253.31 38.45 254 40.5 254.69 42.55 C257.58 51.16 260.58 59.74 263.64 68.29 C265.37 65.05 266.59 61.75 267.78 58.27 C268.2 57.06 268.61 55.84 269.04 54.59 C269.49 53.27 269.94 51.95 270.39 50.63 C270.86 49.27 271.32 47.91 271.79 46.56 C273.01 42.99 274.23 39.43 275.45 35.86 C277.41 30.14 279.37 24.43 281.33 18.71 C282.01 16.71 282.69 14.72 283.38 12.72 C283.79 11.51 284.2 10.3 284.63 9.06 C285 7.99 285.36 6.92 285.74 5.82 C286.64 3.29 286.64 3.29 287.64 1.29 C321.3 1.62 354.96 1.95 389.64 2.29 C387.71 9.35 385.74 16.24 383.37 23.14 C383.06 24.05 382.75 24.96 382.44 25.89 C381.42 28.86 380.41 31.83 379.39 34.79 C378.67 36.91 377.95 39.02 377.22 41.13 C372.4 55.25 367.49 69.34 362.55 83.42 C356.39 101.01 350.42 118.67 344.45 136.32 C338.19 154.89 331.86 173.44 325.34 191.92 C321.82 201.89 318.42 211.9 315.1 221.94 C314.42 224 313.73 226.06 313.04 228.12 C312.82 228.8 312.59 229.48 312.36 230.18 C311.9 231.55 311.44 232.92 310.99 234.29 C309.64 238.34 308.3 242.4 306.98 246.46 C305.96 249.58 304.92 252.69 303.88 255.8 C303.51 256.95 303.14 258.1 302.76 259.28 C302.41 260.33 302.05 261.37 301.69 262.45 C301.39 263.36 301.09 264.28 300.78 265.22 C299.64 267.29 299.64 267.29 297.57 268.16 C296.94 268.2 296.3 268.25 295.64 268.29 C295.31 267.96 294.98 267.63 294.64 267.29 C292.69 267.19 290.74 267.17 288.79 267.16 C287.54 267.16 286.29 267.16 285 267.15 C283.62 267.16 282.24 267.16 280.87 267.16 C279.46 267.16 278.06 267.16 276.65 267.16 C273.71 267.16 270.76 267.16 267.81 267.16 C264.03 267.17 260.26 267.17 256.48 267.16 C253.58 267.16 250.67 267.16 247.77 267.16 C246.38 267.16 244.99 267.16 243.59 267.16 C241.65 267.15 239.7 267.16 237.75 267.16 C236.08 267.17 236.08 267.17 234.39 267.17 C231.55 267.17 231.55 267.17 228.64 268.29 C226.18 263.63 224.14 259.13 222.55 254.11 C221.09 249.6 219.48 245.14 217.88 240.67 C216.61 237.09 215.37 233.5 214.17 229.89 C212.55 225 210.85 220.15 209.14 215.29 C207.18 209.73 205.26 204.17 203.4 198.57 C202.03 194.46 200.58 190.38 199.14 186.29 C197.4 181.34 195.66 176.39 193.96 171.42 C193.73 170.72 193.49 170.03 193.24 169.31 C192.35 166.32 191.97 163.39 191.64 160.29 C190.98 160.29 190.32 160.29 189.64 160.29 C189.54 161.09 189.45 161.88 189.35 162.69 C188.44 167.29 186.9 171.51 185.28 175.89 C184.94 176.83 184.6 177.77 184.25 178.74 C183.13 181.8 182.01 184.86 180.89 187.92 C180.12 190.04 179.34 192.16 178.57 194.28 C177.01 198.57 175.45 202.86 173.88 207.14 C171.85 212.71 169.84 218.27 167.83 223.84 C167.54 224.65 167.25 225.46 166.95 226.29 C165.86 229.32 164.77 232.35 163.68 235.38 C160.93 243.01 158.16 250.63 155.34 258.23 C154.96 259.27 154.96 259.27 154.57 260.33 C152.76 265.18 152.76 265.18 151.64 266.29 C149.49 266.39 147.34 266.41 145.19 266.41 C144.18 266.41 144.18 266.41 143.15 266.41 C140.92 266.41 138.68 266.4 136.45 266.39 C134.9 266.39 133.36 266.39 131.81 266.39 C127.74 266.38 123.66 266.37 119.59 266.36 C115.43 266.35 111.27 266.35 107.12 266.34 C98.96 266.33 90.8 266.31 82.64 266.29 C82 265.05 81.37 263.8 80.74 262.55 C80.21 261.51 80.21 261.51 79.67 260.44 C78.04 257.05 76.8 253.54 75.58 249.98 C75.32 249.24 75.06 248.5 74.79 247.73 C73.11 242.85 71.68 237.94 70.4 232.93 C69.69 230.46 68.83 228.16 67.84 225.79 C65.37 219.71 63.22 213.55 61.08 207.36 C60.69 206.25 60.31 205.15 59.91 204.01 C58.14 198.91 56.47 193.83 55.11 188.6 C53.97 184.28 52.49 180.25 50.77 176.13 C48.58 170.65 46.72 165.05 44.8 159.47 C44.08 157.36 43.35 155.25 42.62 153.15 C40.6 147.28 38.62 141.43 37.05 135.41 C35.92 131.09 34.42 127.06 32.71 122.94 C30.64 117.82 28.88 112.58 27.08 107.36 C26.69 106.25 26.31 105.15 25.91 104.01 C24.14 98.91 22.47 93.83 21.11 88.6 C19.96 84.25 18.47 80.19 16.74 76.03 C14.72 71.01 12.99 65.88 11.23 60.75 C10.58 58.86 9.92 56.97 9.26 55.08 C7.37 49.59 5.55 44.13 4.08 38.51 C2.93 34.12 1.4 30.02 -0.34 25.83 C-2.14 21.35 -3.61 16.76 -5.11 12.17 C-5.43 11.21 -5.74 10.26 -6.07 9.27 C-6.83 6.95 -7.6 4.62 -8.36 2.29 C-5.68 -0.38 -3.64 0.04 0 0 Z M15.64 18.29 C29.71 60.7 44.05 103.01 58.51 145.28 C63.28 159.23 68.03 173.2 72.76 187.17 C79.68 207.56 86.64 227.93 93.64 248.29 C108.82 248.29 124 248.29 139.64 248.29 C146.15 231.02 152.53 213.71 158.85 196.36 C161.11 190.15 163.37 183.94 165.64 177.72 C165.89 177.03 166.14 176.34 166.4 175.63 C169.96 165.87 173.54 156.11 177.14 146.36 C177.56 145.21 177.99 144.06 178.43 142.88 C180.42 137.48 182.41 132.09 184.41 126.69 C185.11 124.79 185.81 122.89 186.51 120.99 C186.83 120.13 187.15 119.27 187.48 118.38 C189.06 114.44 189.06 114.44 189.64 110.29 C190.63 110.29 191.62 110.29 192.64 110.29 C192.81 111.11 192.81 111.11 192.97 111.95 C194.15 117.54 195.72 122.88 197.59 128.29 C197.88 129.13 198.17 129.98 198.47 130.85 C199.41 133.62 200.37 136.4 201.33 139.17 C202 141.13 202.68 143.1 203.35 145.07 C208.5 160.08 213.73 175.07 218.98 190.05 C225.99 210.09 232.81 230.19 239.64 250.29 C255.15 250.29 270.66 250.29 286.64 250.29 C288.13 245.88 289.61 241.47 291.14 236.93 C309.61 182.19 309.61 182.19 317.26 160.42 C323.59 142.42 329.72 124.35 335.82 106.28 C342.73 85.82 349.72 65.41 356.88 45.04 C357.91 42.11 358.93 39.18 359.95 36.26 C360.61 34.37 361.29 32.49 361.96 30.6 C362.34 29.52 362.72 28.44 363.1 27.33 C363.43 26.42 363.75 25.51 364.09 24.57 C364.89 22.15 364.89 22.15 363.64 19.29 C342.85 19.29 322.06 19.29 300.64 19.29 C297.55 26.95 297.55 26.95 294.72 34.68 C294.4 35.61 294.08 36.55 293.75 37.51 C293.25 38.98 293.25 38.98 292.73 40.48 C291.99 42.65 291.24 44.82 290.5 46.99 C290.11 48.11 289.73 49.24 289.33 50.39 C283.08 68.61 276.75 86.78 270.08 104.85 C269.64 106.06 269.19 107.27 268.73 108.51 C268.35 109.54 267.96 110.57 267.57 111.64 C266.8 113.85 266.15 116.01 265.64 118.29 C264.98 118.29 264.32 118.29 263.64 118.29 C263.39 117.65 263.14 117.01 262.89 116.36 C261.51 112.98 259.99 109.68 258.44 106.38 C257.64 104.29 257.64 104.29 257.64 101.29 C256.98 101.29 256.32 101.29 255.64 101.29 C254.89 97.64 254.24 93.98 253.64 90.29 C252.98 90.29 252.32 90.29 251.64 90.29 C251.52 89.45 251.39 88.6 251.26 87.73 C250.61 84.14 249.79 80.75 248.64 77.29 C247.98 76.96 247.32 76.63 246.64 76.29 C246.64 74.31 246.64 72.33 246.64 70.29 C245.98 70.29 245.32 70.29 244.64 70.29 C244.97 69.3 245.3 68.31 245.64 67.29 C244.98 67.29 244.32 67.29 243.64 67.29 C243.97 66.3 244.3 65.31 244.64 64.29 C243.98 64.29 243.32 64.29 242.64 64.29 C242.41 63.08 242.17 61.87 241.93 60.63 C240.5 54.21 238.23 48.1 236.01 41.92 C235.19 39.6 234.36 37.28 233.54 34.96 C232.99 33.43 232.99 33.43 232.43 31.88 C231.64 29.29 231.64 29.29 231.64 26.29 C230.98 26.29 230.32 26.29 229.64 26.29 C229.97 25.3 230.3 24.31 230.64 23.29 C229.98 23.29 229.32 23.29 228.64 23.29 C228.97 22.3 229.3 21.31 229.64 20.29 C228.98 20.29 228.32 20.29 227.64 20.29 C227.64 19.63 227.64 18.97 227.64 18.29 C203.55 18.29 179.46 18.29 154.64 18.29 C151.51 25.79 148.53 33.15 145.93 40.81 C145.59 41.78 145.26 42.75 144.92 43.74 C144.21 45.8 143.5 47.86 142.79 49.92 C140.93 55.36 139.05 60.79 137.18 66.22 C136.8 67.31 136.42 68.41 136.03 69.54 C132.3 80.31 128.49 91.06 124.64 101.79 C124.34 102.64 124.04 103.48 123.73 104.35 C122.89 106.69 122.05 109.04 121.2 111.39 C120.96 112.08 120.71 112.77 120.45 113.49 C118.76 118.18 118.76 118.18 117.64 119.29 C116.98 117.31 116.32 115.33 115.64 113.29 C114.98 113.29 114.32 113.29 113.64 113.29 C113.52 112.45 113.39 111.6 113.26 110.73 C112.61 107.14 111.79 103.75 110.64 100.29 C109.98 99.96 109.32 99.63 108.64 99.29 C108.23 97.31 107.91 95.3 107.64 93.29 C107.31 91.63 106.98 89.96 106.64 88.29 C105.98 88.29 105.32 88.29 104.64 88.29 C105.13 86.81 105.13 86.81 105.64 85.29 C104.98 85.29 104.32 85.29 103.64 85.29 C103.52 84.45 103.39 83.6 103.26 82.73 C102.61 79.14 101.79 75.75 100.64 72.29 C99.98 71.96 99.32 71.63 98.64 71.29 C98.28 69.3 97.96 67.3 97.64 65.29 C97.19 63.52 96.71 61.74 96.2 59.98 C95.96 59.12 95.71 58.26 95.46 57.37 C94.84 55.11 94.84 55.11 92.64 54.29 C92.04 52.4 92.04 52.4 91.58 50.04 C91.33 48.83 91.33 48.83 91.08 47.59 C90.94 46.83 90.79 46.08 90.64 45.29 C90.33 43.78 90.33 43.78 90.01 42.23 C89.83 41.27 89.83 41.27 89.64 40.29 C88.98 40.29 88.32 40.29 87.64 40.29 C88.13 38.81 88.13 38.81 88.64 37.29 C87.98 37.29 87.32 37.29 86.64 37.29 C86.54 36.51 86.43 35.73 86.33 34.92 C85.45 30.29 84.37 25.68 82.64 21.29 C81.65 20.8 81.65 20.8 80.64 20.29 C80.64 19.63 80.64 18.97 80.64 18.29 C59.19 18.29 37.74 18.29 15.64 18.29 Z M94.64 249.29 C94.64 249.62 94.64 249.95 94.64 250.29 C109.49 250.29 124.34 250.29 139.64 250.29 C139.64 249.96 139.64 249.63 139.64 249.29 C124.79 249.29 109.94 249.29 94.64 249.29 Z " fill="#FAC506" transform="translate(11.360153198242188,365.70672607421875)"/>
<path d="M0 0 C1.08 0 1.08 0 2.19 0 C2.95 0 3.71 0 4.5 -0 C7.07 -0.01 9.65 -0.01 12.22 -0.01 C14.06 -0.01 15.89 -0.01 17.73 -0.02 C22.74 -0.03 27.76 -0.03 32.77 -0.03 C35.9 -0.03 39.03 -0.03 42.17 -0.03 C53.11 -0.04 64.05 -0.05 75 -0.05 C85.17 -0.05 95.35 -0.06 105.53 -0.07 C114.28 -0.09 123.03 -0.09 131.78 -0.09 C137 -0.09 142.22 -0.09 147.44 -0.1 C152.36 -0.11 157.28 -0.11 162.21 -0.11 C164 -0.11 165.8 -0.11 167.6 -0.11 C191.82 -0.19 214.11 3.71 232.99 20.14 C233.78 20.78 234.57 21.42 235.38 22.09 C242.68 28.28 248.41 35.42 253.99 43.14 C254.62 43.99 255.24 44.85 255.88 45.73 C266.05 61.11 268.4 84.49 265.12 102.33 C261.92 117.75 256.43 130.16 245.99 142.14 C245.55 142.73 245.1 143.31 244.65 143.92 C241.32 148.24 237.24 151.52 232.99 154.89 C232.4 155.36 231.81 155.83 231.19 156.32 C227.63 159.08 224.12 161.25 219.99 163.14 C223.52 165.49 225.12 165.43 229.31 165.53 C230.62 165.57 231.92 165.61 233.26 165.64 C234.7 165.67 236.13 165.7 237.56 165.73 C239.05 165.77 240.54 165.81 242.03 165.84 C246.68 165.96 251.34 166.05 255.99 166.14 C256.72 166.15 257.44 166.17 258.19 166.18 C267.33 166.35 276.47 166.47 285.61 166.58 C293 166.68 300.38 166.78 307.76 166.89 C308.48 166.9 309.2 166.91 309.93 166.92 C321.66 167.09 333.39 167.31 345.12 167.64 C345.81 167.66 346.49 167.67 347.2 167.69 C349.05 167.74 350.9 167.8 352.75 167.86 C353.73 167.89 354.71 167.92 355.73 167.95 C357.99 168.14 357.99 168.14 359.99 169.14 C360.29 175.56 360.58 181.98 360.85 188.4 C360.94 190.56 361.04 192.72 361.14 194.88 C362.24 218.63 362.09 242.37 361.99 266.14 C341.97 266.16 321.94 266.18 301.91 266.19 C292.61 266.2 283.3 266.2 274 266.21 C265.89 266.22 257.77 266.23 249.66 266.23 C245.37 266.23 241.08 266.24 236.79 266.24 C177.93 266.34 177.93 266.34 152.99 245.14 C151.91 244.23 150.84 243.33 149.76 242.43 C141.2 235.23 133.05 227.65 124.93 219.96 C121.4 216.64 117.82 213.36 114.24 210.08 C111.86 207.9 109.56 205.69 107.32 203.36 C105.12 200.94 105.12 200.94 101.99 200.14 C102.16 201.18 102.32 202.22 102.49 203.3 C103.24 209.39 103.12 215.48 103.09 221.61 C103.09 222.88 103.09 224.16 103.09 225.47 C103.08 228.84 103.07 232.21 103.06 235.57 C103.05 239.02 103.05 242.47 103.04 245.91 C103.03 252.65 103.02 259.4 102.99 266.14 C89.08 266.21 75.16 266.26 61.24 266.29 C54.78 266.31 48.32 266.33 41.86 266.36 C35.63 266.4 29.4 266.42 23.17 266.42 C20.79 266.43 18.4 266.44 16.02 266.46 C12.7 266.48 9.37 266.48 6.04 266.48 C4.55 266.5 4.55 266.5 3.03 266.51 C2.13 266.51 1.23 266.5 0.3 266.5 C-0.88 266.5 -0.88 266.5 -2.09 266.51 C-3.04 266.32 -3.04 266.32 -4.01 266.14 C-6.11 262.99 -6.26 262.27 -6.25 258.68 C-6.26 257.76 -6.26 256.84 -6.27 255.9 C-6.26 254.89 -6.26 253.88 -6.25 252.84 C-6.26 251.77 -6.26 250.69 -6.26 249.59 C-6.27 245.98 -6.26 242.37 -6.25 238.76 C-6.25 236.18 -6.25 233.6 -6.25 231.02 C-6.26 224.73 -6.25 218.44 -6.24 212.15 C-6.23 204.83 -6.23 197.51 -6.23 190.19 C-6.24 177.14 -6.23 164.08 -6.21 151.03 C-6.2 138.35 -6.19 125.67 -6.19 112.99 C-6.19 112.21 -6.19 111.43 -6.19 110.62 C-6.19 109.84 -6.19 109.06 -6.19 108.26 C-6.19 93.84 -6.19 79.42 -6.18 65 C-6.17 59.89 -6.17 54.78 -6.17 49.67 C-6.17 42.81 -6.17 35.94 -6.16 29.07 C-6.15 26.55 -6.15 24.02 -6.15 21.49 C-6.15 18.05 -6.15 14.62 -6.14 11.19 C-6.14 10.17 -6.14 9.16 -6.14 8.11 C-6.14 6.74 -6.14 6.74 -6.13 5.34 C-6.13 4.55 -6.13 3.76 -6.13 2.94 C-5.86 -0.89 -3.22 0.02 0 0 Z M175.99 1.14 C175.99 1.47 175.99 1.8 175.99 2.14 C178.63 2.14 181.27 2.14 183.99 2.14 C183.99 1.81 183.99 1.48 183.99 1.14 C181.35 1.14 178.71 1.14 175.99 1.14 Z M11.99 18.14 C11.9 21.11 11.86 24.06 11.87 27.03 C11.87 27.97 11.87 28.92 11.87 29.89 C11.87 33.08 11.88 36.27 11.88 39.46 C11.88 41.73 11.88 44.01 11.88 46.28 C11.88 52.49 11.89 58.69 11.89 64.89 C11.9 71.36 11.9 77.83 11.9 84.3 C11.9 95.17 11.91 106.04 11.92 116.91 C11.93 128.1 11.93 139.3 11.94 150.5 C11.94 151.19 11.94 151.88 11.94 152.59 C11.94 156.05 11.94 159.51 11.94 162.97 C11.95 191.69 11.97 220.42 11.99 249.14 C36.08 248.81 60.17 248.48 84.99 248.14 C84.99 219.43 84.99 190.72 84.99 161.14 C92 166.87 98.45 172.33 104.68 178.76 C109.38 183.58 114.12 188.21 119.22 192.59 C121.42 194.51 123.46 196.55 125.49 198.64 C128.76 201.94 132.11 205.05 135.64 208.07 C138.14 210.27 140.56 212.53 142.99 214.8 C148.61 220.09 154.31 225.2 160.35 230.01 C162.18 231.48 163.98 232.99 165.77 234.51 C176.59 243.73 185.39 247.08 199.43 247.69 C200.38 247.74 201.34 247.78 202.32 247.82 C215.17 248.33 228.02 248.27 240.88 248.24 C244.52 248.23 248.16 248.23 251.8 248.23 C258.66 248.23 265.51 248.22 272.37 248.21 C280.19 248.2 288.01 248.19 295.83 248.19 C311.89 248.18 327.94 248.16 343.99 248.14 C344.02 238.93 343.99 229.72 343.78 220.51 C343.75 219.52 343.73 218.52 343.71 217.49 C343.64 214.37 343.57 211.25 343.49 208.14 C343.45 206 343.4 203.85 343.35 201.71 C343.23 196.52 343.11 191.33 342.99 186.14 C326.83 185.54 310.67 185.07 294.5 184.86 C293.76 184.85 293.03 184.84 292.28 184.83 C286.28 184.75 280.28 184.68 274.28 184.61 C265.5 184.51 256.72 184.4 247.94 184.24 C243.56 184.16 239.18 184.12 234.79 184.1 C232.65 184.06 230.51 184.02 228.37 183.98 C226.96 183.99 226.96 183.99 225.52 184 C217.73 183.79 213 180.67 207.55 175.27 C205.97 173.6 204.47 171.89 202.99 170.14 C202.21 169.24 201.42 168.34 200.6 167.42 C197.93 164.16 195.8 160.95 193.99 157.14 C195.23 156.78 195.23 156.78 196.48 156.42 C214.73 149.75 232.85 135.42 241.71 118.07 C250.02 99.06 250.26 76.92 242.74 57.51 C240.21 52.07 236.91 47.65 232.99 43.14 C232.42 42.4 231.85 41.66 231.26 40.9 C220.87 28.05 205.19 20.77 188.97 19.05 C188.19 18.97 187.41 18.88 186.61 18.8 C176.48 17.8 166.35 17.66 156.18 17.51 C155.05 17.5 153.92 17.48 152.76 17.46 C124.43 17.01 96.1 17.03 67.77 17.02 C63.98 17.01 60.2 17.01 56.41 17.01 C50.38 17 44.36 17 38.33 17 C36.07 17.01 33.81 17 31.55 17 C28.44 17 25.32 17 22.21 17.01 C21.28 17.01 20.36 17 19.4 17 C15.38 16.61 15.38 16.61 11.99 18.14 Z M246.99 72.14 C247.99 74.14 247.99 74.14 247.99 74.14 Z M247.99 80.14 C248.99 83.14 248.99 83.14 248.99 83.14 Z M247.99 95.14 C248.99 98.14 248.99 98.14 248.99 98.14 Z M231.99 167.14 C231.99 167.47 231.99 167.8 231.99 168.14 C239.91 168.14 247.83 168.14 255.99 168.14 C255.99 167.81 255.99 167.48 255.99 167.14 C248.07 167.14 240.15 167.14 231.99 167.14 Z M300.99 168.14 C300.99 168.47 300.99 168.8 300.99 169.14 C308.58 169.14 316.17 169.14 323.99 169.14 C323.99 168.81 323.99 168.48 323.99 168.14 C316.4 168.14 308.81 168.14 300.99 168.14 Z M343.99 213.14 C343.99 219.41 343.99 225.68 343.99 232.14 C344.32 232.14 344.65 232.14 344.99 232.14 C344.99 225.87 344.99 219.6 344.99 213.14 C344.66 213.14 344.33 213.14 343.99 213.14 Z M200.99 248.14 C200.99 248.47 200.99 248.8 200.99 249.14 C204.62 249.14 208.25 249.14 211.99 249.14 C211.99 248.81 211.99 248.48 211.99 248.14 C208.36 248.14 204.73 248.14 200.99 248.14 Z " fill="#FAC506" transform="translate(918.0058685541153,86.8615944981575)"/>
<path d="M0 0 C1.1 -0.01 2.2 -0.01 3.34 -0.02 C4.55 -0.02 5.76 -0.02 7.01 -0.02 C8.92 -0.03 8.92 -0.03 10.87 -0.04 C14.37 -0.05 17.87 -0.06 21.36 -0.06 C23.55 -0.06 25.73 -0.07 27.92 -0.07 C34.74 -0.08 41.57 -0.09 48.4 -0.1 C56.29 -0.1 64.19 -0.12 72.08 -0.15 C78.17 -0.17 84.27 -0.18 90.36 -0.18 C94 -0.18 97.65 -0.19 101.29 -0.21 C105.35 -0.23 109.41 -0.22 113.47 -0.22 C115.29 -0.23 115.29 -0.23 117.14 -0.24 C118.25 -0.24 119.35 -0.23 120.49 -0.23 C121.93 -0.23 121.93 -0.23 123.4 -0.23 C126.24 0.21 127.08 0.89 128.81 3.14 C129.71 5.07 129.71 5.07 130.47 7.3 C130.76 8.14 131.05 8.98 131.36 9.85 C131.66 10.77 131.97 11.69 132.29 12.64 C132.62 13.61 132.95 14.57 133.3 15.57 C134.39 18.76 135.47 21.95 136.56 25.14 C137.32 27.38 138.09 29.62 138.86 31.85 C140.43 36.42 141.99 41 143.55 45.57 C146.45 54.02 149.39 62.45 152.34 70.88 C158.59 88.73 164.78 106.61 170.96 124.48 C176.08 139.27 181.21 154.05 186.37 168.83 C192.55 186.54 198.72 204.25 204.86 221.98 C205.55 223.99 206.25 226.01 206.95 228.03 C207.29 229 207.62 229.96 207.97 230.96 C209.93 236.61 211.9 242.26 213.88 247.91 C214.31 249.14 214.74 250.37 215.19 251.64 C215.95 253.81 216.71 255.97 217.47 258.13 C217.79 259.04 218.11 259.95 218.44 260.88 C218.7 261.64 218.97 262.41 219.25 263.19 C219.81 265.14 219.81 265.14 219.81 268.14 C206.84 268.41 193.87 268.65 180.9 268.84 C174.88 268.93 168.85 269.04 162.83 269.17 C157.02 269.29 151.21 269.38 145.4 269.46 C143.19 269.49 140.97 269.53 138.75 269.59 C135.65 269.66 132.54 269.7 129.44 269.73 C128.52 269.76 127.6 269.79 126.65 269.82 C124.22 269.82 122.15 269.77 119.81 269.14 C116.96 265.92 115.45 263.12 114.81 258.89 C114.01 254.63 112.59 250.93 110.81 246.99 C109.86 244.3 109.29 241.76 108.74 238.96 C108.48 237.61 108.48 237.61 108.21 236.23 C108.08 235.54 107.94 234.85 107.81 234.14 C106.73 234.13 105.66 234.12 104.55 234.11 C94.41 234.01 84.28 233.91 74.14 233.8 C68.93 233.75 63.72 233.69 58.5 233.64 C53.47 233.6 48.44 233.54 43.41 233.49 C41.49 233.47 39.58 233.45 37.66 233.43 C34.97 233.41 32.28 233.38 29.59 233.35 C28.8 233.34 28.01 233.33 27.2 233.33 C22.64 233.27 18.3 232.88 13.81 232.14 C13.59 233.08 13.37 234.01 13.14 234.97 C11.24 242.93 9.08 250.77 6.62 258.58 C6.36 259.41 6.1 260.25 5.83 261.11 C3.94 267.01 3.94 267.01 2.81 268.14 C-0.26 268.21 -3.31 268.22 -6.38 268.18 C-7.34 268.17 -8.31 268.16 -9.3 268.15 C-12.5 268.13 -15.71 268.09 -18.91 268.05 C-21.13 268.03 -23.34 268.01 -25.56 267.99 C-30.21 267.94 -34.86 267.9 -39.51 267.84 C-45.49 267.78 -51.46 267.72 -57.44 267.67 C-62.02 267.62 -66.59 267.58 -71.17 267.53 C-73.38 267.5 -75.58 267.48 -77.78 267.46 C-80.86 267.43 -83.93 267.4 -87.01 267.36 C-87.93 267.35 -88.85 267.35 -89.8 267.34 C-96.08 267.25 -96.08 267.25 -97.19 266.14 C-96.77 259.5 -94.89 253.72 -92.68 247.47 C-92.13 245.91 -92.13 245.91 -91.58 244.31 C-90.37 240.86 -89.16 237.4 -87.94 233.95 C-87.09 231.5 -86.23 229.05 -85.38 226.6 C-84.03 222.74 -82.69 218.88 -81.34 215.03 C-78.17 205.95 -75.02 196.86 -71.89 187.77 C-71.68 187.13 -71.46 186.5 -71.24 185.85 C-70.14 182.67 -69.04 179.48 -67.95 176.29 C-65.74 169.86 -63.53 163.43 -61.31 157 C-61.1 156.37 -60.88 155.74 -60.66 155.09 C-55.82 141.06 -50.97 127.03 -46.11 113.01 C-41.88 100.8 -37.66 88.59 -33.46 76.37 C-32.76 74.33 -32.05 72.29 -31.35 70.24 C-28.62 62.29 -28.62 62.29 -25.89 54.34 C-23.01 45.94 -20.11 37.54 -17.19 29.14 C-16.97 28.49 -16.75 27.85 -16.51 27.18 C-15.14 23.21 -13.75 19.25 -12.36 15.28 C-11.71 13.43 -11.06 11.57 -10.42 9.71 C-9.83 8.04 -9.83 8.04 -9.22 6.34 C-8.88 5.36 -8.54 4.38 -8.18 3.36 C-6.44 -0.55 -3.9 0.01 0 0 Z M5.81 18.14 C-2.24 41.18 -10.28 64.22 -18.21 87.31 C-20.2 93.09 -22.19 98.86 -24.17 104.64 C-24.85 106.62 -25.53 108.6 -26.21 110.58 C-32.66 129.32 -39.14 148.06 -45.62 166.8 C-48.34 174.66 -51.05 182.53 -53.77 190.39 C-55.28 194.79 -56.8 199.18 -58.31 203.57 C-59.14 205.96 -59.96 208.34 -60.78 210.73 C-61.93 214.05 -63.07 217.36 -64.22 220.68 C-64.75 222.21 -64.75 222.21 -65.28 223.77 C-66.78 228.09 -68.28 232.4 -69.84 236.69 C-70.08 237.35 -70.32 238.01 -70.57 238.69 C-71.17 240.35 -71.79 242.01 -72.4 243.66 C-73.35 246.18 -73.35 246.18 -73.19 249.14 C-52.07 249.14 -30.95 249.14 -9.19 249.14 C-5.94 238.33 -5.94 238.33 -2.7 227.51 C-2.29 226.16 -1.89 224.81 -1.48 223.46 C-1.27 222.75 -1.06 222.04 -0.84 221.31 C0.69 216.25 0.69 216.25 1.81 215.14 C4.3 215.04 6.76 215 9.25 215.01 C10.46 215.01 10.46 215.01 11.69 215 C14.44 215 17.18 215.01 19.93 215.02 C20.88 215.02 21.83 215.02 22.81 215.02 C42.73 215.05 62.65 215.29 82.56 215.55 C85 215.58 87.44 215.61 89.87 215.64 C93.74 215.68 97.61 215.74 101.48 215.79 C102.93 215.81 104.37 215.83 105.82 215.85 C107.8 215.87 109.79 215.9 111.78 215.94 C112.9 215.95 114.02 215.97 115.17 215.98 C117.81 216.14 117.81 216.14 119.81 217.14 C120.63 219.11 120.63 219.11 121.43 221.7 C121.72 222.64 122.02 223.59 122.32 224.56 C122.63 225.56 122.93 226.55 123.24 227.58 C123.69 229.02 123.69 229.02 124.15 230.49 C125.35 234.34 126.53 238.19 127.66 242.06 C127.93 242.96 128.19 243.87 128.47 244.8 C128.7 245.61 128.94 246.42 129.18 247.26 C129.65 249.13 129.65 249.13 130.81 250.14 C132.86 250.26 134.92 250.32 136.98 250.35 C137.62 250.36 138.27 250.37 138.93 250.38 C141.07 250.41 143.2 250.43 145.34 250.46 C146.82 250.48 148.3 250.5 149.78 250.52 C153.67 250.58 157.57 250.62 161.47 250.67 C165.44 250.72 169.42 250.78 173.39 250.83 C181.2 250.94 189 251.04 196.81 251.14 C196.37 250.02 195.94 248.9 195.49 247.75 C194.93 246.27 194.37 244.8 193.81 243.33 C193.52 242.59 193.23 241.85 192.94 241.09 C192.67 240.38 192.4 239.67 192.12 238.93 C191.87 238.28 191.62 237.62 191.36 236.95 C190.81 235.14 190.81 235.14 190.81 232.14 C190.15 232.14 189.49 232.14 188.81 232.14 C189.14 231.15 189.47 230.16 189.81 229.14 C189.15 229.14 188.49 229.14 187.81 229.14 C188.14 228.15 188.47 227.16 188.81 226.14 C188.15 226.14 187.49 226.14 186.81 226.14 C186.72 225.38 186.64 224.61 186.56 223.83 C185.69 219.55 184.22 215.69 182.65 211.63 C181.81 209.14 181.81 209.14 181.81 206.14 C181.15 206.14 180.49 206.14 179.81 206.14 C180.14 205.15 180.47 204.16 180.81 203.14 C180.15 203.14 179.49 203.14 178.81 203.14 C178.4 201.22 178.4 201.22 177.99 199.27 C176.29 191.59 176.29 191.59 173.81 184.14 C173.15 183.81 172.49 183.48 171.81 183.14 C172.14 182.15 172.47 181.16 172.81 180.14 C172.15 180.14 171.49 180.14 170.81 180.14 C171.14 179.15 171.47 178.16 171.81 177.14 C171.15 177.14 170.49 177.14 169.81 177.14 C169.69 176.57 169.56 176 169.44 175.42 C167.88 168.21 167.88 168.21 165.81 161.14 C165.15 160.81 164.49 160.48 163.81 160.14 C164.14 159.15 164.47 158.16 164.81 157.14 C164.15 157.14 163.49 157.14 162.81 157.14 C162.4 155.22 162.4 155.22 161.99 153.27 C160.29 145.59 160.29 145.59 157.81 138.14 C157.15 137.81 156.49 137.48 155.81 137.14 C156.14 136.15 156.47 135.16 156.81 134.14 C156.15 134.14 155.49 134.14 154.81 134.14 C155.14 133.15 155.47 132.16 155.81 131.14 C155.15 131.14 154.49 131.14 153.81 131.14 C153.72 130.38 153.64 129.61 153.56 128.83 C152.69 124.55 151.22 120.69 149.65 116.63 C148.81 114.14 148.81 114.14 148.81 111.14 C148.15 111.14 147.49 111.14 146.81 111.14 C147.14 110.15 147.47 109.16 147.81 108.14 C147.15 108.14 146.49 108.14 145.81 108.14 C145.4 106.22 145.4 106.22 144.99 104.27 C143.29 96.59 143.29 96.59 140.81 89.14 C140.15 88.81 139.49 88.48 138.81 88.14 C139.14 87.15 139.47 86.16 139.81 85.14 C139.15 85.14 138.49 85.14 137.81 85.14 C137.4 83.22 137.4 83.22 136.99 81.27 C135.29 73.59 135.29 73.59 132.81 66.14 C132.15 65.81 131.49 65.48 130.81 65.14 C131.14 64.15 131.47 63.16 131.81 62.14 C131.15 62.14 130.49 62.14 129.81 62.14 C129.54 60.86 129.27 59.58 128.99 58.27 C127.29 50.59 127.29 50.59 124.81 43.14 C124.15 42.81 123.49 42.48 122.81 42.14 C123.14 41.15 123.47 40.16 123.81 39.14 C123.15 39.14 122.49 39.14 121.81 39.14 C121.4 37.22 121.4 37.22 120.99 35.27 C119.37 25.97 119.37 25.97 114.81 18.14 C112.78 17.84 112.78 17.84 110.43 17.9 C109.05 17.9 109.05 17.9 107.64 17.89 C106.12 17.9 106.12 17.9 104.57 17.91 C103.51 17.91 102.45 17.91 101.35 17.91 C97.82 17.91 94.3 17.93 90.77 17.95 C88.33 17.95 85.89 17.95 83.44 17.95 C77.01 17.96 70.58 17.98 64.14 18 C57.58 18.02 51.02 18.03 44.45 18.04 C31.57 18.06 18.69 18.1 5.81 18.14 Z M3.81 215.14 C3.81 215.47 3.81 215.8 3.81 216.14 C18 216.14 32.19 216.14 46.81 216.14 C46.81 215.81 46.81 215.48 46.81 215.14 C32.62 215.14 18.43 215.14 3.81 215.14 Z M-26.19 250.14 C-26.19 250.47 -26.19 250.8 -26.19 251.14 C-20.58 251.14 -14.97 251.14 -9.19 251.14 C-9.19 250.81 -9.19 250.48 -9.19 250.14 C-14.8 250.14 -20.41 250.14 -26.19 250.14 Z M131.81 251.14 C131.81 251.47 131.81 251.8 131.81 252.14 C138.08 252.14 144.35 252.14 150.81 252.14 C150.81 251.81 150.81 251.48 150.81 251.14 C144.54 251.14 138.27 251.14 131.81 251.14 Z " fill="#FAC506" transform="translate(455.19358825683594,363.85955810546875)"/>
<path d="M0 0 C1 0.01 2 0.02 3.04 0.03 C4.75 0.04 4.75 0.04 6.51 0.05 C7.78 0.06 9.04 0.07 10.35 0.09 C11.69 0.1 13.03 0.11 14.37 0.11 C18.02 0.14 21.67 0.17 25.32 0.21 C29.13 0.24 32.93 0.27 36.74 0.3 C43.96 0.36 51.18 0.42 58.4 0.48 C66.61 0.55 74.83 0.62 83.04 0.68 C99.95 0.82 116.85 0.96 133.75 1.11 C134.03 1.92 134.03 1.92 134.31 2.75 C136.27 8.52 138.24 14.3 140.2 20.07 C140.93 22.21 141.65 24.35 142.38 26.49 C147.15 40.53 151.97 54.55 156.88 68.54 C157.56 70.49 158.24 72.43 158.92 74.37 C159.33 75.55 159.33 75.55 159.75 76.76 C165.09 92 170.32 107.27 175.57 122.54 C177.46 128.07 179.36 133.6 181.26 139.13 C181.49 139.81 181.73 140.49 181.97 141.19 C186.24 153.64 190.54 166.08 194.85 178.52 C195.93 181.64 197.01 184.77 198.1 187.9 C201.4 197.44 204.71 206.98 208.03 216.52 C210.03 222.27 212.03 228.02 214.03 233.77 C214.88 236.22 215.73 238.68 216.59 241.13 C217.77 244.52 218.95 247.92 220.13 251.32 C220.49 252.33 220.84 253.33 221.2 254.37 C221.69 255.77 221.69 255.77 222.18 257.2 C222.46 258.01 222.74 258.82 223.03 259.65 C223.85 262.45 224.32 265.23 224.75 268.11 C211.78 268.25 198.81 268.35 185.85 268.42 C179.82 268.45 173.8 268.49 167.78 268.56 C161.97 268.63 156.16 268.66 150.35 268.68 C148.13 268.69 145.91 268.71 143.7 268.74 C140.59 268.79 137.49 268.79 134.39 268.79 C133.47 268.81 132.55 268.83 131.6 268.85 C129.17 268.83 127.09 268.76 124.75 268.11 C121.88 264.85 120.38 262 119.69 257.73 C118.98 254.01 117.93 250.68 116.55 247.16 C115.67 244.89 114.85 242.6 114.07 240.29 C113.69 239.2 113.69 239.2 113.3 238.09 C112.75 236.11 112.75 236.11 112.75 233.11 C82.06 233.11 51.37 233.11 19.75 233.11 C16.45 243.67 13.15 254.23 9.75 265.11 C7.8 267.06 4.82 266.23 2.22 266.23 C0.81 266.23 0.81 266.23 -0.63 266.22 C-2.11 266.22 -2.11 266.22 -3.62 266.22 C-6.89 266.22 -10.16 266.21 -13.44 266.21 C-15.7 266.2 -17.96 266.2 -20.23 266.2 C-26.2 266.2 -32.17 266.19 -38.14 266.18 C-44.22 266.17 -50.31 266.16 -56.39 266.16 C-68.34 266.15 -80.3 266.13 -92.25 266.11 C-93.15 262.58 -93.33 260.35 -92.13 256.91 C-91.86 256.1 -91.58 255.3 -91.3 254.47 C-91 253.61 -90.69 252.74 -90.37 251.85 C-90.06 250.93 -89.74 250.01 -89.42 249.07 C-88.37 246.03 -87.31 243.01 -86.25 239.98 C-85.51 237.86 -84.77 235.73 -84.04 233.6 C-82.15 228.14 -80.25 222.69 -78.34 217.24 C-76.99 213.38 -75.65 209.52 -74.3 205.66 C-72.15 199.47 -69.99 193.29 -67.83 187.11 C-63.4 174.46 -59.06 161.79 -54.75 149.11 C-49.69 134.22 -44.56 119.35 -39.36 104.51 C-34.99 92.04 -30.68 79.56 -26.4 67.07 C-26.02 65.95 -26.02 65.95 -25.63 64.81 C-23.3 58.04 -20.98 51.26 -18.67 44.49 C-3.54 0.17 -3.54 0.17 0 0 Z M10.75 17.11 C8.13 23.02 5.7 28.76 3.61 34.85 C3.18 36.08 3.18 36.08 2.74 37.33 C1.8 40.03 0.87 42.72 -0.06 45.42 C-0.72 47.34 -1.39 49.25 -2.06 51.17 C-6.99 65.38 -11.84 79.62 -16.68 93.87 C-21.85 109.07 -27.1 124.23 -32.41 139.39 C-35.87 149.28 -39.31 159.17 -42.74 169.07 C-43.31 170.72 -43.31 170.72 -43.89 172.41 C-45.81 177.97 -47.73 183.53 -49.65 189.1 C-53.16 199.26 -56.69 209.4 -60.31 219.53 C-60.94 221.27 -61.56 223.01 -62.18 224.76 C-63.32 227.95 -64.47 231.14 -65.63 234.33 C-66.13 235.74 -66.63 237.14 -67.13 238.55 C-67.57 239.75 -68 240.96 -68.45 242.2 C-69.54 245.14 -69.54 245.14 -68.25 248.11 C-47.13 248.11 -26.01 248.11 -4.25 248.11 C-1.07 240.27 -1.07 240.27 1.64 232.35 C2.09 230.92 2.09 230.92 2.54 229.46 C2.99 228.02 2.99 228.02 3.44 226.54 C4.05 224.58 4.65 222.62 5.26 220.67 C5.53 219.81 5.79 218.96 6.06 218.08 C6.75 216.11 6.75 216.11 7.75 215.11 C10.04 215.02 12.34 215 14.63 215.01 C15.66 215.01 15.66 215.01 16.71 215.01 C18.91 215.02 21.11 215.03 23.32 215.04 C24.8 215.05 26.29 215.05 27.78 215.06 C31.44 215.07 35.1 215.09 38.75 215.11 C38.75 215.44 38.75 215.77 38.75 216.11 C67.46 216.11 96.17 216.11 125.75 216.11 C126.74 220.56 126.74 220.56 127.75 225.11 C128.53 227.6 129.34 230.08 130.19 232.54 C132.2 238.38 133.98 244.19 135.75 250.11 C168.42 250.6 168.42 250.6 201.75 251.11 C198.29 241.7 198.29 241.7 194.75 232.11 C194.75 231.12 194.75 230.13 194.75 229.11 C194.09 229.11 193.43 229.11 192.75 229.11 C193.08 228.12 193.41 227.13 193.75 226.11 C193.09 226.11 192.43 226.11 191.75 226.11 C192.08 225.12 192.41 224.13 192.75 223.11 C192.09 223.11 191.43 223.11 190.75 223.11 C190.51 221.85 190.26 220.59 190 219.29 C188.96 214.51 187.34 210.05 185.56 205.49 C184.75 203.11 184.75 203.11 184.75 200.11 C184.09 200.11 183.43 200.11 182.75 200.11 C183.08 199.12 183.41 198.13 183.75 197.11 C183.09 197.11 182.43 197.11 181.75 197.11 C181.53 195.91 181.3 194.71 181.07 193.48 C179.84 187.84 177.81 182.53 175.78 177.15 C174.75 174.11 174.75 174.11 174.75 171.11 C174.09 171.11 173.43 171.11 172.75 171.11 C173.08 170.12 173.41 169.13 173.75 168.11 C173.09 168.11 172.43 168.11 171.75 168.11 C171.51 166.85 171.26 165.59 171 164.29 C169.96 159.51 168.34 155.05 166.56 150.49 C165.75 148.11 165.75 148.11 165.75 145.11 C165.09 145.11 164.43 145.11 163.75 145.11 C164.08 144.12 164.41 143.13 164.75 142.11 C164.09 142.11 163.43 142.11 162.75 142.11 C162.38 140.22 162.38 140.22 162 138.29 C160.96 133.51 159.34 129.05 157.56 124.49 C156.75 122.11 156.75 122.11 156.75 119.11 C156.09 119.11 155.43 119.11 154.75 119.11 C155.08 118.12 155.41 117.13 155.75 116.11 C155.09 116.11 154.43 116.11 153.75 116.11 C153.38 114.22 153.38 114.22 153 112.29 C151.96 107.51 150.34 103.05 148.56 98.49 C147.75 96.11 147.75 96.11 147.75 93.11 C147.09 93.11 146.43 93.11 145.75 93.11 C146.08 92.12 146.41 91.13 146.75 90.11 C146.09 90.11 145.43 90.11 144.75 90.11 C145.08 89.12 145.41 88.13 145.75 87.11 C145.09 87.11 144.43 87.11 143.75 87.11 C143.35 85.19 143.35 85.19 142.94 83.23 C141.24 75.55 141.24 75.55 138.75 68.11 C138.09 67.78 137.43 67.45 136.75 67.11 C137.08 66.12 137.41 65.13 137.75 64.11 C137.09 64.11 136.43 64.11 135.75 64.11 C136.08 63.12 136.41 62.13 136.75 61.11 C136.09 61.11 135.43 61.11 134.75 61.11 C134.51 59.85 134.26 58.59 134 57.29 C132.96 52.51 131.34 48.05 129.56 43.49 C128.75 41.11 128.75 41.11 128.75 38.11 C128.09 38.11 127.43 38.11 126.75 38.11 C127.08 37.12 127.41 36.13 127.75 35.11 C127.09 35.11 126.43 35.11 125.75 35.11 C125.64 34.56 125.53 34.02 125.42 33.46 C125.26 32.7 125.1 31.95 124.94 31.17 C124.79 30.44 124.64 29.71 124.48 28.96 C123.45 24.94 122.06 21.04 120.75 17.11 C84.45 17.11 48.15 17.11 10.75 17.11 Z " fill="#FAC506" transform="translate(665.2470102310181,86.89256954193115)"/>
<path d="M0 0 C0.99 0 1.98 0 3 0 C11.6 24.4 20.05 48.85 28.38 73.35 C29.37 76.28 30.37 79.21 31.38 82.14 C32.57 85.64 33.76 89.14 34.95 92.64 C35.39 93.94 35.83 95.23 36.28 96.53 C36.89 98.33 37.5 100.12 38.1 101.92 C38.45 102.93 38.79 103.94 39.15 104.98 C40 108 40 108 41 115 C14.6 115 -11.8 115 -39 115 C-40.24 110.06 -38.94 107.08 -37.27 102.47 C-36.97 101.62 -36.68 100.77 -36.37 99.89 C-35.38 97.09 -34.38 94.29 -33.38 91.5 C-32.68 89.55 -31.99 87.6 -31.3 85.65 C-29.22 79.76 -27.11 73.88 -25 68 C-24.4 66.31 -23.79 64.62 -23.19 62.93 C-19.49 52.61 -15.76 42.3 -12 32 C-11.46 30.52 -10.92 29.05 -10.39 27.57 C-8.84 23.34 -7.3 19.11 -5.75 14.88 C-5.51 14.23 -5.28 13.58 -5.03 12.91 C-4.37 11.1 -3.71 9.3 -3.05 7.49 C-2.67 6.47 -2.3 5.46 -1.92 4.41 C-1 2 -1 2 0 0 Z M0 50 C-0.27 50.82 -0.54 51.64 -0.82 52.48 C-10.8 82.6 -10.8 82.6 -16 97 C-13 98.5 -10.36 98 -7.02 97.88 C-6.34 97.86 -5.65 97.83 -4.95 97.81 C-2.76 97.73 -0.57 97.65 1.62 97.56 C3.11 97.51 4.59 97.46 6.08 97.4 C9.72 97.28 13.36 97.14 17 97 C16.69 95.87 16.69 95.87 16.37 94.72 C16.1 93.74 15.82 92.75 15.54 91.73 C15.14 90.26 15.14 90.26 14.72 88.77 C13.96 85.86 13.4 82.98 13 80 C12.34 80 11.68 80 11 80 C11.33 79.01 11.66 78.02 12 77 C11.34 77 10.68 77 10 77 C10.33 76.01 10.66 75.02 11 74 C10.34 74 9.68 74 9 74 C9.33 73.01 9.66 72.02 10 71 C9.34 71 8.68 71 8 71 C7.75 69.76 7.5 68.53 7.25 67.25 C5.95 61.35 3.99 55.7 2 50 C1.34 50 0.68 50 0 50 Z M36 112 C37.49 112.99 37.49 112.99 39 114 C39.33 113.34 39.66 112.68 40 112 C38.68 112 37.36 112 36 112 Z " fill="#FAC606" transform="translate(731,138)"/>
<path d="M0 0 C1.52 0 1.52 0 3.07 0 C4.79 -0 4.79 -0 6.55 -0.01 C7.81 0 9.06 0.01 10.35 0.02 C11.64 0.02 12.93 0.02 14.26 0.02 C17 0.02 19.75 0.03 22.5 0.04 C25.97 0.06 29.44 0.06 32.91 0.06 C77.13 0.06 77.13 0.06 87.4 9.5 C93.67 16.27 96.97 23.62 96.79 32.82 C96.06 41.55 92.02 47.46 85.59 53.25 C76.15 60.23 65.42 60.55 54.07 60.51 C52.9 60.51 51.73 60.52 50.52 60.52 C48.05 60.52 45.58 60.52 43.11 60.51 C39.36 60.5 35.62 60.51 31.88 60.52 C4.84 60.54 4.84 60.54 -2.41 58.25 C-4.62 54.94 -4.66 53.92 -4.67 50.07 C-4.68 49.02 -4.68 47.96 -4.69 46.88 C-4.68 45.74 -4.68 44.6 -4.68 43.43 C-4.68 42.26 -4.68 41.1 -4.68 39.89 C-4.68 37.42 -4.68 34.96 -4.67 32.49 C-4.66 28.7 -4.67 24.91 -4.68 21.12 C-4.68 18.72 -4.68 16.33 -4.68 13.93 C-4.68 12.79 -4.68 11.65 -4.69 10.48 C-4.68 9.43 -4.68 8.38 -4.67 7.29 C-4.67 6.36 -4.67 5.44 -4.66 4.48 C-4.29 1.2 -3.25 0.33 0 0 Z M14.59 1.25 C14.59 1.58 14.59 1.91 14.59 2.25 C28.78 2.25 42.97 2.25 57.59 2.25 C57.59 1.92 57.59 1.59 57.59 1.25 C43.4 1.25 29.21 1.25 14.59 1.25 Z M-3.41 2.25 C-3.41 18.09 -3.41 33.93 -3.41 50.25 C-3.08 50.25 -2.75 50.25 -2.41 50.25 C-2.41 34.41 -2.41 18.57 -2.41 2.25 C-2.74 2.25 -3.07 2.25 -3.41 2.25 Z M14.59 18.25 C13.72 21.24 13.47 23.9 13.49 27.01 C13.49 27.9 13.5 28.79 13.5 29.71 C13.51 30.63 13.52 31.55 13.53 32.5 C13.53 33.43 13.54 34.37 13.54 35.33 C13.55 37.64 13.57 39.94 13.59 42.25 C16.01 43.46 17.47 43.35 20.17 43.3 C21.12 43.29 22.08 43.27 23.06 43.26 C24.61 43.23 24.61 43.23 26.19 43.2 C27.25 43.18 28.31 43.16 29.41 43.14 C31.67 43.1 33.92 43.05 36.18 43.01 C39.61 42.94 43.05 42.88 46.48 42.83 C48.67 42.78 50.87 42.74 53.06 42.7 C54.08 42.68 55.1 42.67 56.15 42.65 C67.27 42.67 67.27 42.67 76.71 37.68 C79.19 33.14 78.94 30.15 77.59 25.25 C76.38 22.28 76.38 22.28 74.59 20.25 C71.07 19.07 67.82 19.02 64.16 18.93 C63.42 18.91 62.68 18.89 61.92 18.87 C59.52 18.8 57.12 18.74 54.71 18.68 C53.07 18.64 51.44 18.6 49.8 18.56 C38.06 18.26 26.33 18.12 14.59 18.25 Z " fill="#FAC506" transform="translate(793.4106750488281,429.7527618408203)"/>
<path d="M0 0 C0.99 0 1.98 0 3 0 C3.25 0.77 3.51 1.53 3.77 2.32 C11.78 26.48 19.92 50.59 28.1 74.69 C28.78 76.7 29.46 78.7 30.14 80.7 C30.98 83.17 31.81 85.64 32.65 88.11 C33.41 90.33 34.16 92.55 34.91 94.78 C35.66 96.99 36.41 99.19 37.17 101.4 C37.72 103.01 37.72 103.01 38.29 104.65 C38.62 105.61 38.95 106.57 39.29 107.56 C40 110 40 110 40 113 C13.93 113 -12.14 113 -39 113 C-40.01 108.98 -40.07 108.34 -38.75 104.73 C-38.44 103.89 -38.14 103.04 -37.83 102.18 C-37.49 101.26 -37.15 100.34 -36.79 99.39 C-36.44 98.42 -36.09 97.45 -35.73 96.45 C-34.56 93.23 -33.37 90.02 -32.19 86.81 C-31.37 84.58 -30.56 82.35 -29.74 80.11 C-27.61 74.26 -25.46 68.4 -23.31 62.55 C-21.59 57.89 -19.89 53.22 -18.18 48.55 C-14.7 39.01 -11.2 29.47 -7.7 19.94 C-7.38 19.08 -7.06 18.21 -6.74 17.33 C-4.59 11.51 -2.33 5.75 0 0 Z M0 49 C-0.22 49.76 -0.44 50.51 -0.67 51.29 C-3.35 60.23 -6.48 68.95 -9.75 77.69 C-10.75 80.36 -11.74 83.03 -12.73 85.7 C-13.17 86.86 -13.61 88.03 -14.05 89.23 C-15.11 91.83 -15.11 91.83 -15 94 C-5.1 94 4.8 94 15 94 C13.7 88.14 12.36 82.73 10.38 77.12 C8 70.4 8 70.4 8 67 C7.34 67 6.68 67 6 67 C6.33 66.01 6.66 65.02 7 64 C6.34 64 5.68 64 5 64 C5.33 63.01 5.66 62.02 6 61 C5.34 61 4.68 61 4 61 C4.33 60.01 4.66 59.02 5 58 C4.34 58 3.68 58 3 58 C3.33 57.01 3.66 56.02 4 55 C3.34 55 2.68 55 2 55 C2.33 54.01 2.66 53.02 3 52 C2.01 51.01 1.02 50.02 0 49 Z M16 94 C0.16 94.5 0.16 94.5 -16 95 C-16 95.33 -16 95.66 -16 96 C-5.11 96 5.78 96 17 96 C16.5 95.01 16.5 95.01 16 94 Z M34 110 C35.98 110.99 35.98 110.99 38 112 C38.33 111.34 38.66 110.68 39 110 C37.35 110 35.7 110 34 110 Z " fill="#FAC606" transform="translate(516,417)"/>
<path d="M0 0 C0.69 -0.01 1.37 -0.01 2.08 -0.02 C4.36 -0.04 6.65 -0.05 8.93 -0.06 C10.1 -0.07 10.1 -0.07 11.3 -0.07 C15.44 -0.09 19.58 -0.11 23.72 -0.12 C27.98 -0.13 32.24 -0.16 36.5 -0.2 C39.79 -0.23 43.08 -0.24 46.37 -0.24 C47.94 -0.25 49.51 -0.26 51.07 -0.28 C65.93 -0.44 76.06 2.76 86.92 13.3 C92.05 19.66 91.78 29.02 91.26 36.81 C89.8 45.28 84.34 50.85 77.76 55.95 C72.12 58.93 66.13 59.43 59.86 59.45 C59.15 59.46 58.44 59.46 57.71 59.47 C55.39 59.48 53.07 59.48 50.76 59.48 C49.14 59.48 47.52 59.49 45.89 59.49 C42.51 59.5 39.13 59.5 35.75 59.49 C31.42 59.49 27.08 59.5 22.74 59.53 C19.4 59.54 16.06 59.54 12.72 59.54 C11.12 59.54 9.52 59.55 7.92 59.56 C5.69 59.57 3.47 59.56 1.24 59.55 C-0.67 59.55 -0.67 59.55 -2.61 59.55 C-4.07 59.37 -4.07 59.37 -5.56 59.18 C-7.8 55.82 -7.81 54.73 -7.81 50.8 C-7.81 49.71 -7.81 48.61 -7.82 47.48 C-7.81 46.29 -7.8 45.11 -7.79 43.89 C-7.79 42.07 -7.79 42.07 -7.79 40.21 C-7.79 37.64 -7.78 35.07 -7.77 32.51 C-7.75 28.56 -7.75 24.62 -7.75 20.67 C-7.74 18.18 -7.74 15.69 -7.73 13.2 C-7.73 12.01 -7.73 10.82 -7.73 9.6 C-7.72 8.51 -7.72 7.42 -7.71 6.29 C-7.71 5.33 -7.7 4.36 -7.7 3.37 C-7.42 -1.26 -3.9 0.03 0 0 Z M10.44 17.18 C9.18 19.68 9.32 21.39 9.34 24.18 C9.34 25.17 9.34 26.16 9.35 27.17 C9.36 28.21 9.36 29.24 9.37 30.3 C9.38 31.34 9.38 32.38 9.39 33.45 C9.4 36.03 9.42 38.6 9.44 41.18 C17 41.23 24.56 41.26 32.12 41.29 C34.69 41.3 37.27 41.31 39.84 41.33 C43.54 41.35 47.24 41.36 50.94 41.37 C52.66 41.39 52.66 41.39 54.41 41.4 C63.82 41.48 63.82 41.48 72.35 37.89 C73.89 35.45 73.8 33.6 73.75 30.74 C73.74 29.79 73.74 28.84 73.74 27.87 C73.35 24.21 73.35 24.21 71.44 21.18 C66.42 18.46 61.21 17.67 55.56 17.49 C54.41 17.44 54.41 17.44 53.23 17.39 C38.98 16.87 24.69 17.1 10.44 17.18 Z M63.44 41.18 C63.44 41.51 63.44 41.84 63.44 42.18 C65.09 42.18 66.74 42.18 68.44 42.18 C68.44 41.85 68.44 41.52 68.44 41.18 C66.79 41.18 65.14 41.18 63.44 41.18 Z " fill="#FAC606" transform="translate(1009.564208984375,149.822998046875)"/>
<path d="M0 0 C59.07 0 118.14 0 179 0 C179 0.33 179 0.66 179 1 C119.93 1 60.86 1 0 1 C0 0.67 0 0.34 0 0 Z " fill="#FBC607" transform="translate(703,367)"/>
<path d="M0 0 C0.33 0 0.66 0 1 0 C1 56.76 1 113.52 1 172 C0.67 172 0.34 172 0 172 C0 115.24 0 58.48 0 0 Z " fill="#FBC607" transform="translate(396,177)"/>
<path d="M0 0 C49.83 0 99.66 0 151 0 C151 0.33 151 0.66 151 1 C101.17 1 51.34 1 0 1 C0 0.67 0 0.34 0 0 Z " fill="#FBC607" transform="translate(914,86)"/>
<path d="M0 0 C0.33 0 0.66 0 1 0 C1 46.2 1 92.4 1 140 C0.67 140 0.34 140 0 140 C0 93.8 0 47.6 0 0 Z " fill="#F2BC06" transform="translate(700,369)"/>
<path d="M0 0 C43.56 0 87.12 0 132 0 C132 0.33 132 0.66 132 1 C88.44 1 44.88 1 0 1 C0 0.67 0 0.34 0 0 Z " fill="#FBC607" transform="translate(664,86)"/>
<path d="M0 0 C35.64 0 71.28 0 108 0 C108 0.33 108 0.66 108 1 C72.36 1 36.72 1 0 1 C0 0.67 0 0.34 0 0 Z " fill="#FBC607" transform="translate(504,84)"/>
<path d="M0 0 C4 2 4 2 5 4 C4.01 4.5 4.01 4.5 3 5 C2.67 32.39 2.34 59.78 2 88 C1.67 88 1.34 88 1 88 C0.67 58.96 0.34 29.92 0 0 Z " fill="#FCD303" transform="translate(1003,248)"/>
<path d="M0 0 C32.01 0 64.02 0 97 0 C97 0.33 97 0.66 97 1 C64.99 1 32.98 1 0 1 C0 0.67 0 0.34 0 0 Z " fill="#FBC607" transform="translate(301,366)"/>
<path d="M0 0 C24.42 0 48.84 0 74 0 C74 0.33 74 0.66 74 1 C49.58 1 25.16 1 0 1 C0 0.67 0 0.34 0 0 Z " fill="#DDA606" transform="translate(1011,633)"/>
<path d="M0 0 C20.79 0 41.58 0 63 0 C63 0.33 63 0.66 63 1 C42.21 1 21.42 1 0 1 C0 0.67 0 0.34 0 0 Z " fill="#DDA606" transform="translate(243,633)"/>
<path d="M0 0 C19.14 0 38.28 0 58 0 C58 0.33 58 0.66 58 1 C38.86 1 19.72 1 0 1 C0 0.67 0 0.34 0 0 Z " fill="#FBC607" transform="translate(1004,149)"/>
<path d="M0 0 C2 1 2 1 2 1 Z M-1 1 C-0.67 1.99 -0.34 2.98 0 4 C-3.96 7.96 -7.92 11.92 -12 16 C-12.66 15.34 -13.32 14.68 -14 14 C-9.71 9.71 -5.42 5.42 -1 1 Z " fill="#F1BC06" transform="translate(942,493)"/>
<path d="M0 0 C2 1 2 1 2 1 Z M-1 1 C-0.67 1.99 -0.34 2.98 0 4 C-3.3 7.3 -6.6 10.6 -10 14 C-10.66 13.34 -11.32 12.68 -12 12 C-8.37 8.37 -4.74 4.74 -1 1 Z " fill="#F1BC06" transform="translate(1180,591)"/>
<path d="M0 0 C1.88 0.25 1.88 0.25 4 1 C5.25 3.06 5.25 3.06 6 5 C4.35 5.33 2.7 5.66 1 6 C0.67 4.02 0.34 2.04 0 0 Z " fill="#F8CB03" transform="translate(790,528)"/>
<path d="M0 0 C0.33 0.99 0.66 1.98 1 3 C-1.31 5.31 -3.62 7.62 -6 10 C-6.66 9.34 -7.32 8.68 -8 8 C-5.36 5.36 -2.72 2.72 0 0 Z " fill="#F2BC06" transform="translate(1055,384)"/>
<path d="M0 0 C0.33 0 0.66 0 1 0 C1 5.61 1 11.22 1 17 C0.67 17 0.34 17 0 17 C0 11.39 0 5.78 0 0 Z " fill="#E0A906" transform="translate(700,515)"/>
<path d="M0 0 C0.33 0 0.66 0 1 0 C1 5.28 1 10.56 1 16 C0.67 16 0.34 16 0 16 C0 10.72 0 5.44 0 0 Z " fill="#FBC607" transform="translate(1029,434)"/>
<path d="M0 0 C0.33 0 0.66 0 1 0 C1 3.3 1 6.6 1 10 C0.67 10 0.34 10 0 10 C0 6.7 0 3.4 0 0 Z " fill="#F5BF06" transform="translate(154,163)"/>
<path d="M0 0 C0.33 0 0.66 0 1 0 C1 1.98 1 3.96 1 6 C0.67 6 0.34 6 0 6 C0 4.02 0 2.04 0 0 Z " fill="#FBC607" transform="translate(1260,435)"/>
<path d="M0 0 C1.98 0 3.96 0 6 0 C6 0.33 6 0.66 6 1 C4.02 1 2.04 1 0 1 C0 0.67 0 0.34 0 0 Z " fill="#ECB606" transform="translate(494,84)"/>
<path d="" fill="#FDD403" transform="translate(0,0)"/>
<path d="" fill="#FBC607" transform="translate(0,0)"/>
<path d="" fill="#FBC607" transform="translate(0,0)"/>
<path d="" fill="#FBC607" transform="translate(0,0)"/>
</svg>
